<svg id="Layer_2" data-name="Layer 2" xmlns="http://www.w3.org/2000/svg" width="880.928" height="633.07" viewBox="0 0 880.928 633.07">
  <g id="OBJECTS">
    <path id="Path_50" data-name="Path 50" d="M816.345,632.918c51.726,0,83.043-53.011,52.644-90.71-.632-.8-1.3-1.57-2.039-2.345-18.595-21.082-46.894-28.544-71.809-40.39-6.912-3.262-13.844-7.055-18.676-13.171-6.708-8.5-8.319-20.389-6.932-31.358,5.811-45.793,55.743-74.011,63.8-119.437,6.117-34.355-14.925-69.322-43.428-87.427s-62.92-22.754-96.255-24.181-67.14-.163-99.579-8.278c-8.563-2.039-17.432-5.24-23.243-12.233-6.586-7.829-7.972-19.165-6.932-29.564,2.834-28.014,66.651-124.371,34.661-156.076A58.6,58.6,0,0,0,551.658.194C534.633,2.049,518.588,9.878,503.6,18.747c-31.786,18.717-142.721,142.844-182.541,161.6-39.208,18.35-84.226,13.008-127.185,12.233s-90.73,5.5-118.805,39.595c-9.95,12.05-16.821,28.32-13.477,43.856,2.039,9.705,7.89,18.105,14.5,25.262,15.067,16.311,34.661,27.606,48.933,44.713s21.775,44.2,8.38,62.063c-5.22,6.932-12.784,11.4-20.185,15.557C71.768,447.013,25.261,470.99,7.176,516.5-2.08,539.741-1.9,565.431,4.954,589.49c7.279,25.547,32.826,43.428,62.1,43.428Z" transform="translate(-0.001 0.01)" fill="#cae2ff"/>
    <path id="Path_51" data-name="Path 51" d="M708.126,539.854c-18.595-21.082-46.894-28.544-71.809-40.39-6.912-3.262-13.844-7.055-18.676-13.171-6.708-8.5-8.319-20.389-6.932-31.358,5.811-45.793,55.743-74.011,63.8-119.437,6.117-34.355-14.925-69.322-43.428-87.427s-62.92-22.754-96.255-24.181-67.14-.163-99.579-8.278c-8.563-2.039-17.432-5.24-23.243-12.233-6.586-7.829-7.972-19.165-6.932-29.564C407.9,145.8,471.718,49.443,439.728,17.738A59.535,59.535,0,0,0,399.766,0c20.185,5.5,34.967,17.045,24.2,40.778C399.134,95.4,168.741,277.144,330.628,295.025s-106.266,161.866,15.883,171.8c93.177,7.585-97.866,116.746-193.571,166.148H657.46c51.726,0,83.043-53.011,52.644-90.71C709.472,541.4,708.8,540.628,708.126,539.854Z" transform="translate(158.884 0.02)" fill="#a6cef4" opacity="0.41"/>
    <path id="Path_52" data-name="Path 52" d="M78.867,140.259S246.646,198.02,321.35,63.006-61.959,90.1,78.867,140.259Z" transform="translate(53.802 10.923)" fill="#cae2ff"/>
    <path id="Path_53" data-name="Path 53" d="M270.182,10.51C282.069,18.4,284.454,32.632,272,55.121c-52.786,95.521-152.182,94.543-205.926,85.8,19.594,6.117,170.572,48.2,240.261-77.926C327.026,25.781,306.984,11.081,270.182,10.51Z" transform="translate(68.637 10.938)" fill="#a6cef4" opacity="0.41"/>
    <path id="Path_54" data-name="Path 54" d="M59.245,371.866s-6.117-5.709-2.039-27.423,14.537-42.531,9.42-66.06S21.4,195.483,21.26,191.548s-12.376,69.036,8.38,97.866,23.243,38.739,22.305,53.867.224,27.3,2.508,30.807Z" transform="translate(18.232 198.855)" fill="#4286e8"/>
    <path id="Path_55" data-name="Path 55" d="M53.542,328.156c-2.426,9.664-3.874,33.947,0,39.758.367.53.877.224,1.529-.775-1.183-4.078-2.039-11.051.265-22.774,4.078-21.694,14.537-42.531,9.42-66.06S19.513,195.4,19.37,191.47c0,0,6.117,49.443,26.505,83.472C60.351,299.327,55.947,318.472,53.542,328.156Z" transform="translate(20.122 198.933)" fill="#1d54b5"/>
    <path id="Path_56" data-name="Path 56" d="M43.342,343.383S31.557,313.962,51.5,288.5s51.91-58.19,52.542-71.136c0,0,8.156,61.513-17.779,78.925s-44.1,20.246-39.7,47Z" transform="translate(41.433 225.83)" fill="#4286e8"/>
    <path id="Path_57" data-name="Path 57" d="M69.918,283.909c-28.993,21.1-31.276,45.406-26.872,56.681a2.9,2.9,0,0,0,1.9,1.692c-3.894-25.853,14.272-28.789,39.86-46,26-17.412,17.779-78.925,17.779-78.925S98.891,262.827,69.918,283.909Z" transform="translate(42.912 225.83)" fill="#1d54b5"/>
    <path id="Path_58" data-name="Path 58" d="M65.131,350.029a103.228,103.228,0,0,0,1.774-32.4c-2.039-16.821-19.594-26.281-36.007-44.04-8.441-9.155-10.928-57.476-5.709-61.982,0,0-28.972,35.13-24.467,60.84s51.706,42.429,56.11,54.866a68.772,68.772,0,0,1,4.078,22.856Z" transform="translate(0.255 219.856)" fill="#4286e8"/>
    <path id="Path_59" data-name="Path 59" d="M9.46,225.112C-.082,251.066,9.7,282.485,41.511,302c23.427,14.272,15.964,44.223,15.964,44.223l3.833-11.805a92.278,92.278,0,0,0-.347-17.126c-2.039-16.821-19.594-26.281-36.007-44.04-8.156-8.828-10.745-54.091-6.117-61.329A154.956,154.956,0,0,0,9.46,225.111Z" transform="translate(6.197 220.178)" fill="#1d54b5"/>
    <path id="Path_60" data-name="Path 60" d="M12.23,212.262l.51-.652a2.9,2.9,0,0,0-.51.652Z" transform="translate(12.704 219.856)" fill="#49b4d6"/>
    <path id="Path_61" data-name="Path 61" d="M44.55,309.945s6.789-25.2,23.59-28.544,36.088-28.218,37.148-33.091C105.288,248.269,102.556,295.082,44.55,309.945Z" transform="translate(46.281 257.983)" fill="#4286e8"/>
    <path id="Path_62" data-name="Path 62" d="M63.847,289.71c-10.194,5.158-14.578,12.07-16.087,18.35,51.543-16.576,54.193-59.78,54.193-59.78a19.39,19.39,0,0,1-2.63,4.914C94.267,262.083,82.033,280.617,63.847,289.71Z" transform="translate(49.616 257.952)" fill="#1d54b5"/>
    <path id="Path_63" data-name="Path 63" d="M107.156,274H19.28l10.439,65.631a10.194,10.194,0,0,0,10.194,8.645H86.6A10.194,10.194,0,0,0,96.8,339.631Z" transform="translate(20.028 284.672)" fill="#f95858"/>
    <path id="Path_64" data-name="Path 64" d="M105.412,284.857l1.733-10.867H19.29L21,284.857Z" transform="translate(20.039 284.661)" fill="#e53838"/>
    <path id="Path_65" data-name="Path 65" d="M62.453,274,52.014,339.631a10.194,10.194,0,0,1-10.194,8.645H63.187a10.194,10.194,0,0,0,10.194-8.645L83.739,274Z" transform="translate(43.445 284.672)" fill="#e53838"/>
    <rect id="Rectangle_35" data-name="Rectangle 35" width="18.289" height="149.592" transform="translate(454.831 483.478)" fill="#fff"/>
    <rect id="Rectangle_36" data-name="Rectangle 36" width="7.177" height="149.572" transform="translate(465.943 483.478)" fill="#e8f2fc"/>
    <path id="Path_66" data-name="Path 66" d="M307.352,304.47h-99.9a6.117,6.117,0,0,0-6.117,6.117h0a6.117,6.117,0,0,0,6.117,6.117h99.9a6.116,6.116,0,0,0,6.117-6.117h0a6.117,6.117,0,0,0-6.117-6.117Z" transform="translate(209.156 316.326)" fill="#fff"/>
    <path id="Path_67" data-name="Path 67" d="M306.9,304.47H207a6.117,6.117,0,0,0-5.24,3h86.53a6.117,6.117,0,0,1,6.117,6.117,5.893,5.893,0,0,1-.9,3.14h13.4a6.117,6.117,0,0,0,0-12.233Z" transform="translate(209.602 316.326)" fill="#e8f2fc"/>
    <rect id="Rectangle_37" data-name="Rectangle 37" width="18.289" height="13.314" transform="translate(454.831 483.478)" fill="#e8f2fc"/>
    <path id="Path_68" data-name="Path 68" d="M380.855,135.734a20.756,20.756,0,0,0-8.461-1.774H269.43a20.98,20.98,0,0,0-20.593,17.025L216.684,319.579a21.287,21.287,0,0,0,0,7.952.631.631,0,0,0,0,.163H188.14a8.543,8.543,0,0,0,0,17.065h92.524v-.265H340.3a20.98,20.98,0,0,0,20.593-17.025l32.235-168.676A21,21,0,0,0,380.855,135.734Z" transform="translate(187.012 139.188)" fill="#f93"/>
    <path id="Path_69" data-name="Path 69" d="M393.059,157.971,360.824,326.647a20.98,20.98,0,0,1-20.593,17.025H280.594v.265H188.07a8.543,8.543,0,0,1,0-17.065h28.544a.592.592,0,0,1,0-.183H320.353a28.831,28.831,0,0,0,28.321-23.411L380.887,134.83A20.98,20.98,0,0,1,393.059,157.971Z" transform="translate(186.939 140.091)" fill="#e8f2fc"/>
    <path id="Path_70" data-name="Path 70" d="M349.02,217l-.2,1.019a28.83,28.83,0,0,1-28.32,23.406H216.86a.592.592,0,0,0,0,.184H188.316a8.522,8.522,0,0,0-8.42,7.216V225.6a7.707,7.707,0,0,1,7.789-8.584Z" transform="translate(186.836 225.456)" fill="#fff"/>
    <path id="Path_71" data-name="Path 71" d="M362.361,135.734,330.167,304.186a28.871,28.871,0,0,1-28.34,23.427H198.191a21.287,21.287,0,0,1,0-7.952l32.255-168.676a20.98,20.98,0,0,1,20.593-17.025H354A20.756,20.756,0,0,1,362.361,135.734Z" transform="translate(205.505 139.188)" fill="#fff"/>
    <path id="Path_72" data-name="Path 72" d="M251.6,115H76.253a6.667,6.667,0,0,0-6.606,7.646L84.714,225.691a6.667,6.667,0,0,0,6.606,5.729H266.663a6.688,6.688,0,0,0,6.626-7.646L258.263,120.709A6.647,6.647,0,0,0,251.6,115Z" transform="translate(72.278 119.49)" fill="#1d54b5"/>
    <path id="Path_73" data-name="Path 73" d="M227.037,115H76.283a6.667,6.667,0,0,0-6.606,7.646L76.3,168.194a134.443,134.443,0,0,0,53.928,11.091C180.51,179.286,210.115,152.576,227.037,115Z" transform="translate(72.309 119.49)" fill="#3070ce"/>
    <path id="Path_74" data-name="Path 74" d="M139.156,153.58H105.963a4.689,4.689,0,0,0-4.649,5.362l10.052,69.016v.652l.449,2.732a4.71,4.71,0,0,0,4.649,4.078h32.765Z" transform="translate(105.202 159.57)" fill="#4286e8"/>
    <path id="Path_75" data-name="Path 75" d="M172.084,230.558a4.771,4.771,0,0,0-4.771-4.689H142.276a7.421,7.421,0,0,1-7.34-6.382l-7.36-53.765h4.363a4.689,4.689,0,0,0,4.649-5.383l-.449-2.712a4.689,4.689,0,0,0-4.649-4.078h-8.706a6.545,6.545,0,0,0-6.5,7.422l9.175,68.4a6.871,6.871,0,0,0,6.81,5.954h35.109a4.771,4.771,0,0,0,4.771-4.832Z" transform="translate(120.738 159.539)" fill="#1d54b5"/>
    <path id="Path_76" data-name="Path 76" d="M137.97,166.4a3.14,3.14,0,1,1-3.14-3.14,3.14,3.14,0,0,1,3.14,3.14Z" transform="translate(136.808 169.627)" fill="#4286e8"/>
    <path id="Path_77" data-name="Path 77" d="M145.88,166.4a3.14,3.14,0,1,1-3.14-3.14,3.14,3.14,0,0,1,3.14,3.14Z" transform="translate(145.026 169.627)" fill="#4286e8"/>
    <circle id="Ellipse_5" data-name="Ellipse 5" cx="3.14" cy="3.14" r="3.14" transform="translate(298.776 332.887)" fill="#4286e8"/>
    <path id="Path_78" data-name="Path 78" d="M160.2,162.791l9.155,62.9a6.688,6.688,0,0,0,6.626,5.729h2.63a6.688,6.688,0,0,0,6.626-7.646L170.208,120.709A6.647,6.647,0,0,0,163.6,115h-2.63a6.687,6.687,0,0,0-6.626,7.646l5.852,40.145" transform="translate(160.273 119.49)" fill="#4286e8"/>
    <path id="Path_79" data-name="Path 79" d="M157.068,120.52H95.9a2.426,2.426,0,0,0-2.406,2.814l.408,2.528A2.426,2.426,0,0,0,96.31,127.9h61.166a2.426,2.426,0,0,0,2.385-2.814l-.408-2.528a2.406,2.406,0,0,0-2.385-2.039Z" transform="translate(97.097 125.225)" fill="#4286e8"/>
    <path id="Path_80" data-name="Path 80" d="M299.76,174.848c-1.937-14.925-23.794-7.952-15.577-21.836,7.585-12.865-1.244-18.554-11.683-20.552-13.314-2.569-5.75-7.809-12.233-20.226-8.156-15.761-20.919-11.091-20.919-11.091s-15.9-8.645-32.112,5.036c-17.086,14.415-13.355,27.158-4.22,44.651,4.628,8.849-1.04,16.739-5.077,32.989-4.853,19.512,19.227,58.8,70.79,32.275C288.648,205.819,300.718,182.759,299.76,174.848Z" transform="translate(202.883 102.296)" fill="#13448c"/>
    <path id="Path_81" data-name="Path 81" d="M257.341,141.9s-7.87.836-15.883,8.849c-5.383,5.383-31.745,57.843-31.745,57.843l-24.324-74.5-17.8,1.386s20.042,119.8,35.66,120.029c14.741.2,61.594-77.355,61.594-77.355Z" transform="translate(174.104 139.323)" fill="#f95858"/>
    <path id="Path_82" data-name="Path 82" d="M275.321,174.834l15.6,58.475L198.7,240.832l.428,16.658s106.307.469,126.41.265c13.334-.143-11.785-105.736-27.79-117.827-12.682-9.542-47.689-7.014-47.689-7.014l-24.956,10.6s-28.952,28.667-11.662,55.641c13.62,21.245-3.752,62.532-3.752,62.532l58.944,3.425,52.644.489Z" transform="translate(206.423 137.786)" fill="#f95858"/>
    <path id="Path_83" data-name="Path 83" d="M211.819,233.767l3.3-.612c3.16-13.8,3.731-32.622-3.466-41.715-14.272-17.962.408-44.06,8.665-53.5h0c-1.3,1.346-28.544,29.258-11.6,55.6C216.753,206.12,214.776,222.492,211.819,233.767Z" transform="translate(211.083 143.322)" fill="#e54848"/>
    <path id="Path_84" data-name="Path 84" d="M211.792,187.54c-9.746.347-20.185,3.833-25.058,9.583a2.039,2.039,0,0,0,1.509,3.221h23.712Z" transform="translate(193.596 194.851)" fill="#ffb19e"/>
    <path id="Path_85" data-name="Path 85" d="M246.082,135.691v19.7l-17.657,20.205v-.224l-4.812-10.194v-11.03a22.427,22.427,0,0,1-18.656-17.453l-2.487-13.62A42.817,42.817,0,0,0,225.978,111a50.014,50.014,0,0,0,7.666,10.194c3.262,3.242,7.809,4.078,9.542,5.831A10.867,10.867,0,0,1,246.082,135.691Z" transform="translate(210.34 115.335)" fill="#ffb19e"/>
    <path id="Path_86" data-name="Path 86" d="M233.219,131.7a54.868,54.868,0,0,0-3.792-15.394c-3.609-8.156-8.686-17.718-19.227-17.738,0,0,25.588-4.078,29.89,31.664Z" transform="translate(218.371 102.277)" fill="#ff4751"/>
    <path id="Path_87" data-name="Path 87" d="M240.7,122.441a11.581,11.581,0,1,0-10.194,13.64,12.05,12.05,0,0,0,10.194-13.64Z" transform="translate(226.199 117.391)" fill="#ff4751"/>
    <path id="Path_88" data-name="Path 88" d="M232.991,135.781a11.6,11.6,0,0,1-12.356-10.765A11.744,11.744,0,0,1,229.1,112.11h-.958a12.519,12.519,0,0,0,2.63,24.874,10.745,10.745,0,0,0,5.24-2.039,10.419,10.419,0,0,1-3.018.836Z" transform="translate(225.938 116.488)" fill="#cc3241"/>
    <path id="Path_89" data-name="Path 89" d="M232.493,120.092a5.607,5.607,0,1,0-4.914,6.626A5.831,5.831,0,0,0,232.493,120.092Z" transform="translate(229.984 120.046)" fill="#cc3241"/>
    <path id="Path_90" data-name="Path 90" d="M229.488,128a71.361,71.361,0,0,1-8.257,9.032,5.831,5.831,0,0,0-2.039,4.526l-1.55,16.128-4.812-10.194V136.5l.122-.122S223.983,134.626,229.488,128Z" transform="translate(221.103 132.996)" fill="#f48f7a"/>
    <path id="Path_91" data-name="Path 91" d="M217.394,133.189l-.2-1.121c6.443-1.1,11.153-9.766,11.193-9.848l1,.53C229.2,123.137,224.367,131.966,217.394,133.189Z" transform="translate(225.632 126.991)" fill="#ff4751"/>
    <path id="Path_92" data-name="Path 92" d="M221.242,127.985c-.163-1.04-1.753-1.631-3.568-1.284s-3.181,1.468-3.018,2.528,1.753,1.631,3.568,1.284S221.487,129.045,221.242,127.985Z" transform="translate(222.987 131.543)" fill="#ff4751"/>
    <path id="Path_93" data-name="Path 93" d="M186.982,149.638s2.508-20.613.245-21.367-4.506,8.033-4.506,8.033-9.562-18.595-16.107-16.576,5.485,30.583,5.485,30.583Z" transform="translate(171.064 124.243)" fill="#ffb19e"/>
    <path id="Path_94" data-name="Path 94" d="M207.4,216.7l72.625-6.117a4.2,4.2,0,0,0,3.752-5c-2.671-13.559-10.419-52.481-10.888-51.319s7.3,45.793-2.039,50.3C264.57,207.712,207.4,216.7,207.4,216.7Z" transform="translate(215.462 160.264)" fill="#e54848"/>
    <path id="Path_95" data-name="Path 95" d="M243.276,297.17a2.345,2.345,0,0,0-1.386.938c-4.608,6.422-8.706,7.952-16.821,9.032a5.28,5.28,0,0,0-1.509.51c.612-.938,3.323-5.362,1.448-9.338a45.468,45.468,0,0,0-4.608-7.727l11.826-7.034S239.5,291.889,243.276,297.17Z" transform="translate(228.967 294.593)" fill="#ffb19e"/>
    <path id="Path_96" data-name="Path 96" d="M260,305.32c-2.039,2.039-35.884,20.491-43.917,25.119-.979.571-2.956,1.611-3.323.53-.571-1.672,14.048-29.87,20.266-30.705,8.155-1.1,12.233-2.63,16.821-9.053a2.365,2.365,0,0,1,3.894,0C256.982,296.165,261.691,303.709,260,305.32Z" transform="translate(221.011 301.49)" fill="#13448c"/>
    <path id="Path_97" data-name="Path 97" d="M247.178,195.84s-82,38-84.165,64.367C160.974,283.654,281.941,390.92,281.941,390.92l19.125-7.87L234.9,276.437s70.056-34.539,87.142-76.193Z" transform="translate(169.323 203.473)" fill="#13448c"/>
    <path id="Path_98" data-name="Path 98" d="M185.018,249.058c-5.566,10.7-9.664,25.649-12.5,39.208,9.277,11.01,20.98,23.427,33.091,35.64-8.93-35.334-16.882-70.769-14.129-75.826,5.22-9.685,39.982-35.415,64.53-48.2C256.012,199.921,197.965,224.265,185.018,249.058Z" transform="translate(179.226 207.67)" fill="#09326d"/>
    <path id="Path_99" data-name="Path 99" d="M219.316,309.83a2.385,2.385,0,0,0-1.672.143c-7.177,3.344-11.5,2.671-19.1-.347a5.14,5.14,0,0,0-1.57-.285c1-.51,5.525-3.058,5.831-7.442a45.428,45.428,0,0,0-.245-9.032l13.783-.367S218.582,303.428,219.316,309.83Z" transform="translate(204.626 303.891)" fill="#ffb19e"/>
    <path id="Path_100" data-name="Path 100" d="M235.474,319.6c-2.814.734-42.694.285-51.971.408a1.794,1.794,0,0,1-1.794-2.039c.326-1.733,26.852-19.186,32.622-16.882,7.605,3,11.927,3.67,19.1.306a2.365,2.365,0,0,1,3.364,2.039C237.37,309.12,237.737,319.029,235.474,319.6Z" transform="translate(188.754 312.594)" fill="#13448c"/>
    <path id="Path_101" data-name="Path 101" d="M338.733,198.82s6.871,46.446-34.661,58.189a564.759,564.759,0,0,1-68,14.007l2.508,131.813H216.6s-40.247-140.947-34.5-151.448c6.443-11.927,57.578-48.117,79.516-54.642Z" transform="translate(188.601 204.408)" fill="#1d54b5"/>
    <path id="Path_102" data-name="Path 102" d="M216.9,270.31a564.772,564.772,0,0,0,68-14.007c41.634-11.744,34.661-58.189,34.661-58.189l-25.669-.693c-7.748,16.637-32.928,57.863-93.992,62.308l13.824,142.4h5.688Z" transform="translate(207.67 205.115)" fill="#0e367c" opacity="0.13"/>
    <path id="Path_103" data-name="Path 103" d="M80.025,427.229l-9.155-.061,38.107-229.027,9.216-.061Z" transform="translate(73.624 205.8)" fill="#fff"/>
    <path id="Path_104" data-name="Path 104" d="M284.54,428.467l9.725.061-47.241-231.7-9.664.082Z" transform="translate(246.586 204.502)" fill="#fff"/>
    <path id="Path_105" data-name="Path 105" d="M97.546,210.782l2.508-12.7-9.216.061L88.33,210.782Z" transform="translate(91.763 205.8)" fill="#e4edf7"/>
    <path id="Path_106" data-name="Path 106" d="M250.123,212.081l-3.1-15.251-9.664.082,3.079,15.169Z" transform="translate(246.586 204.502)" fill="#e4edf7"/>
    <path id="Path_107" data-name="Path 107" d="M482.3,193.76H69.059a4.649,4.649,0,0,0-4.649,4.568h0A4.669,4.669,0,0,0,69.059,203H482.3a4.669,4.669,0,0,0,4.649-4.669h0A4.649,4.649,0,0,0,482.3,193.76Z" transform="translate(66.913 201.312)" fill="#fff"/>
    <path id="Path_108" data-name="Path 108" d="M252.465,128.909,241.577,65.847a5.933,5.933,0,0,0-5.872-5.077l-101.312,1.1a5.954,5.954,0,0,0-5.872,6.81L138.084,124l4.832,31.317a1.835,1.835,0,0,0,3.344.754l12.886-19.39,87.447-.958a5.913,5.913,0,0,0,5.872-6.81Z" transform="translate(133.452 63.152)" fill="#1d54b5"/>
    <path id="Path_109" data-name="Path 109" d="M202.371,70.37h-58.72a1.631,1.631,0,0,0-1.611,1.9l.265,1.713a1.652,1.652,0,0,0,1.631,1.386h58.7a1.651,1.651,0,0,0,1.631-1.917l-.285-1.713a1.631,1.631,0,0,0-1.611-1.366Z" transform="translate(147.539 73.125)" fill="#fff"/>
    <path id="Path_110" data-name="Path 110" d="M203.331,78h-58.7A1.631,1.631,0,0,0,143,79.9l.285,1.713A1.631,1.631,0,0,0,144.9,83h58.72a1.631,1.631,0,0,0,1.611-1.9l-.265-1.713A1.672,1.672,0,0,0,203.331,78Z" transform="translate(148.537 81.052)" fill="#fff"/>
    <path id="Path_111" data-name="Path 111" d="M180.4,86.31H153.242a1.631,1.631,0,0,0-1.631,1.9l.285,1.713a1.631,1.631,0,0,0,1.611,1.386h27.178a1.631,1.631,0,0,0,1.611-1.917l-.265-1.713A1.631,1.631,0,0,0,180.4,86.31Z" transform="translate(157.481 89.685)" fill="#fff"/>
    <path id="Path_112" data-name="Path 112" d="M448.719,77.836,462.2,18.525a3.527,3.527,0,0,0-3.527-4.771l-95.827,1.04a9.155,9.155,0,0,0-8.155,6.382L342.84,73.228l-7.116,29.462c-.367,1.55,1.468,2.039,2.875.693l19.43-18.35,82.615-.9a9.175,9.175,0,0,0,8.074-6.3Z" transform="translate(348.725 14.3)" fill="#1d54b5"/>
    <path id="Path_113" data-name="Path 113" d="M410.738,23.19H358.257a2.406,2.406,0,0,0-2.039,1.713l-.367,1.529a.918.918,0,0,0,.958,1.244h52.419a2.406,2.406,0,0,0,2.039-1.713l.367-1.529a.938.938,0,0,0-.9-1.244Z" transform="translate(369.62 24.111)" fill="#fff"/>
    <path id="Path_114" data-name="Path 114" d="M408.9,30H356.358a2.406,2.406,0,0,0-2.039,1.713l-.367,1.529a.918.918,0,0,0,.958,1.244h52.542a2.406,2.406,0,0,0,2.039-1.713l.367-1.529A.938.938,0,0,0,408.9,30Z" transform="translate(367.646 31.185)" fill="#fff"/>
    <path id="Path_115" data-name="Path 115" d="M385.454,37.46H361.13a2.447,2.447,0,0,0-2.141,1.713l-.347,1.529a.9.9,0,0,0,.938,1.223h24.344a2.385,2.385,0,0,0,2.039-1.692l.367-1.529a.918.918,0,0,0-.877-1.244Z" transform="translate(372.518 38.936)" fill="#fff"/>
    <path id="Path_116" data-name="Path 116" d="M177.729,135.233a1.835,1.835,0,0,0,2.977-1.733L167.718,58.612a5.036,5.036,0,0,0-4.975-4.3l-85.979.938a5.016,5.016,0,0,0-4.975,5.77l9.236,53.5A5.036,5.036,0,0,0,86,118.84l66.2-.734a13.253,13.253,0,0,1,8.645,3.079Z" transform="translate(74.519 56.441)" fill="#f95858"/>
    <path id="Path_117" data-name="Path 117" d="M141.341,65.3h-58.7a1.631,1.631,0,0,0-1.631,1.9l.285,1.713A1.631,1.631,0,0,0,82.907,70.3h58.72a1.631,1.631,0,0,0,1.611-1.9l-.265-1.713a1.672,1.672,0,0,0-1.631-1.386Z" transform="translate(84.137 67.858)" fill="#fff"/>
    <path id="Path_118" data-name="Path 118" d="M142.311,72.94H83.592a1.652,1.652,0,0,0-1.611,1.917l.285,1.713a1.631,1.631,0,0,0,1.611,1.366H142.6a1.631,1.631,0,0,0,1.611-1.9l-.285-1.713A1.631,1.631,0,0,0,142.311,72.94Z" transform="translate(85.145 75.795)" fill="#fff"/>
    <path id="Path_119" data-name="Path 119" d="M422.043,155.31l-.326,11.785-7.075,273.7H386.4L361.346,206.323l-31.868,79.088,21.734,155.383-10.439.1-17.29.143s-51.706-154.955-50.666-165.149,39.88-119.6,39.88-119.6Z" transform="translate(283.407 161.368)" fill="#1d54b5"/>
    <path id="Path_120" data-name="Path 120" d="M403.584,76.033l-53.113-7.3-1.264-.184-25.4.1-.224.061L293.24,76.3V246.931H403.584Z" transform="translate(304.639 71.235)" fill="#f95858"/>
    <path id="Path_121" data-name="Path 121" d="M392,102.688s3.874-24.12,6.667-24.242,2.508,10.561,2.508,10.561,16.739-17.881,23.447-13.518-16.148,32.826-16.148,32.826Z" transform="translate(407.238 77.731)" fill="#ffb19e"/>
    <path id="Path_122" data-name="Path 122" d="M359.522,68.712,362.4,257.144H322.659l-2.814-51.563-52.6-.856a8.155,8.155,0,0,1-8.033-10.317l26.261-91.3A31.031,31.031,0,0,1,307.9,81.516L359.42,68.63Z" transform="translate(268.981 71.318)" fill="#4286e8"/>
    <path id="Path_123" data-name="Path 123" d="M483.728,115.473l-51.094,105a8.726,8.726,0,0,1-15.108.285l-39.982-66.284L375.5,257.113H333.1L321.23,68.66h.163l53.969,7.422A31.317,31.317,0,0,1,398.83,93.351l27.3,56.314a2.039,2.039,0,0,0,3.548.428L464.339,108.6Z" transform="translate(333.717 71.349)" fill="#4286e8"/>
    <path id="Path_124" data-name="Path 124" d="M288.68,149.94h51.787l.51-26.526-51.787-.754Z" transform="translate(299.902 127.448)" fill="#4286e8"/>
    <path id="Path_125" data-name="Path 125" d="M314.354,142.195c14.619-.53,30.237-5.77,37.556-14.272a2.956,2.956,0,0,0-2.263-4.853H314.13Z" transform="translate(326.341 127.874)" fill="#ffb19e"/>
    <path id="Path_126" data-name="Path 126" d="M320.463,137.121l.041-.836-31.684-.245,2.773,51.074,9.46-42.307Z" transform="translate(300.047 141.348)" fill="#13448c" opacity="0.41"/>
    <path id="Path_127" data-name="Path 127" d="M360.155,161.09l-7.075,273.7H351.1l-19-273.7Z" transform="translate(345.01 167.372)" fill="#0e367c" opacity="0.32"/>
    <path id="Path_128" data-name="Path 128" d="M349.872,142.44s-70.26,5.1-69.811,3.752l12.233-42.021.183.632,1.2,29.319C293.8,138.1,346.2,141.4,349.872,142.44Z" transform="translate(290.945 108.239)" fill="#13448c" opacity="0.41"/>
    <path id="Path_129" data-name="Path 129" d="M403.94,196.622l51.094-105h-.224c-5.423,0-53.011,99.416-57.986,101.944-5.709,2.854-47.975-62.818-47.975-62.818l39.982,66.284a8.726,8.726,0,0,0,15.108-.408Z" transform="translate(362.411 95.202)" fill="#13448c" opacity="0.41"/>
    <path id="Path_130" data-name="Path 130" d="M317.442,295.414c-6.117,12.5-35.069,18.8-35.069,18.8a7.992,7.992,0,0,0,1.2,8.359c3.323,4.649,33.825,1.794,37.638.958a13.335,13.335,0,0,0,6.463-3.955,20.917,20.917,0,0,0,4.078,3.466c1.427.693,9.216-.856,9.216-.856,1.835-4.975,0-23.936-.51-26.974Z" transform="translate(292.649 306.706)" fill="#13448c"/>
    <path id="Path_131" data-name="Path 131" d="M353.474,295.414c6.117,12.5,35.089,18.8,35.089,18.8a8.013,8.013,0,0,1-1.223,8.359c-3.3,4.649-33.8,1.794-37.638.958a13.334,13.334,0,0,1-6.443-3.955,20.571,20.571,0,0,1-4.078,3.466c-1.427.693-9.216-.856-9.216-.856-1.835-4.975,0-23.936.53-26.974Z" transform="translate(341.965 306.706)" fill="#13448c"/>
    <path id="Path_132" data-name="Path 132" d="M309.2,259.408,330.937,414.79l-10.439.1c-6.4-33.4-28.993-145.331-28.157-152.345.958-8.38,47.282-79.822,48.709-82.208Z" transform="translate(303.682 187.371)" fill="#0e367c" opacity="0.32"/>
    <path id="Path_133" data-name="Path 133" d="M334.776,80.137c-3.854,3.079-13.151,9.623-13.151,9.623s-9.481-6.484-13.4-9.6V57.73h26.505Z" transform="translate(320.212 59.994)" fill="#ffb19e" fill-rule="evenodd"/>
    <path id="Path_134" data-name="Path 134" d="M334.765,57.7v9.4a20.98,20.98,0,0,1-26.505.122V57.7Z" transform="translate(320.243 59.963)" fill="#ffb19e" fill-rule="evenodd"/>
    <path id="Path_135" data-name="Path 135" d="M301.4,77.924h59.7l.918-16.617c13.212-5.587,3.3-37.067,3.3-37.067.775,7.625-19.8,7.87-27.912,6.606a21.959,21.959,0,0,0-13.7,2.039S297.812,27.3,299.239,63.611A66.615,66.615,0,0,0,301.4,77.924Z" transform="translate(310.812 25.202)" fill="#13448c" fill-rule="evenodd"/>
    <path id="Path_136" data-name="Path 136" d="M350.832,48.706V63.692a23.264,23.264,0,0,1-7.3,16.924c-.753.672-1.528,1.406-2.3,2.14a20.96,20.96,0,0,1-28.707,0l-2.284-2.141A23.1,23.1,0,0,1,303,63.753V52.315A90.1,90.1,0,0,0,319.311,36.33S329.893,46.422,350.832,48.706Z" transform="translate(314.778 37.762)" fill="#ffb19e" fill-rule="evenodd"/>
    <path id="Path_137" data-name="Path 137" d="M334.765,59.53V65.2a20.98,20.98,0,0,1-26.505.122V59.612A20.939,20.939,0,0,0,334.765,59.53Z" transform="translate(320.243 61.864)" fill="#f48f7a" fill-rule="evenodd"/>
    <path id="Path_138" data-name="Path 138" d="M312.77,57.582A7.605,7.605,0,0,0,302.147,46.96a4.893,4.893,0,0,0-1.448,1.448A7.605,7.605,0,0,0,311.322,59.03a4.669,4.669,0,0,0,1.448-1.448Z" transform="translate(310.88 47.297)" fill="#ffb19e" fill-rule="evenodd"/>
    <path id="Path_139" data-name="Path 139" d="M336.148,57.554a7.585,7.585,0,0,0-10.072-10.928,5.648,5.648,0,0,0-2.284,2.3A7.564,7.564,0,0,0,334.72,59a4.222,4.222,0,0,0,1.427-1.448Z" transform="translate(335.192 47.325)" fill="#ffb19e" fill-rule="evenodd"/>
    <path id="Path_140" data-name="Path 140" d="M359.048,60.853h-2.263v-7.87c0-13.049-11.907-23.671-26.505-23.671h-1.121c-14.639,0-26.505,10.623-26.505,23.671v7.87H300.39v-7.87c0-14.272,12.926-25.833,28.809-25.833h.979c15.883,0,28.809,11.581,28.809,25.833Z" transform="translate(312.067 28.225)" fill="#a31919"/>
    <path id="Path_141" data-name="Path 141" d="M331.5,41.62h0a6.422,6.422,0,0,0-6.4,6.4V59.44a6.422,6.422,0,0,0,6.4,6.4h0a6.422,6.422,0,0,0,6.4-6.4V48.022a6.423,6.423,0,0,0-6.4-6.4Z" transform="translate(337.737 43.258)" fill="#f95858"/>
    <path id="Path_142" data-name="Path 142" d="M329.227,41.62a6.769,6.769,0,0,0-1.937.326,6.4,6.4,0,0,1,4.486,6.117V59.481A6.4,6.4,0,0,1,327.29,65.6a6.769,6.769,0,0,0,1.937.326,6.423,6.423,0,0,0,6.4-6.4V48.1a6.423,6.423,0,0,0-6.4-6.484Z" transform="translate(340.013 43.258)" fill="#cc3241"/>
    <path id="Path_143" data-name="Path 143" d="M304.542,41.62h0a6.422,6.422,0,0,0-6.4,6.4V59.44a6.422,6.422,0,0,0,6.4,6.4h0a6.422,6.422,0,0,0,6.4-6.4V48.022a6.422,6.422,0,0,0-6.4-6.4Z" transform="translate(309.729 43.258)" fill="#f95858"/>
    <path id="Path_144" data-name="Path 144" d="M302.267,41.62a6.769,6.769,0,0,0-1.937.326,6.4,6.4,0,0,1,4.485,6.117V59.481A6.4,6.4,0,0,1,300.33,65.6a6.769,6.769,0,0,0,1.937.326,6.422,6.422,0,0,0,6.4-6.4V48.1a6.423,6.423,0,0,0-6.4-6.484Z" transform="translate(312.004 43.258)" fill="#cc3241"/>
    <path id="Path_145" data-name="Path 145" d="M319.75,62.568V61.284c7.3-.469,13.559-9.542,13.62-9.644l1.06.734C334.1,52.782,327.681,62.079,319.75,62.568Z" transform="translate(332.179 53.667)" fill="#ff4751"/>
    <path id="Path_146" data-name="Path 146" d="M324.263,57.7c0-1.2-1.753-2.039-3.833-1.876s-3.69,1.264-3.65,2.467,1.753,2.039,3.813,1.855S324.3,58.879,324.263,57.7Z" transform="translate(329.094 57.989)" fill="#ff4751"/>
    <path id="Path_147" data-name="Path 147" d="M387.067,84.84H294.319a9.032,9.032,0,0,0-8.787,9.664l2.447,59.7a9.114,9.114,0,0,0,8.991,8.706h87.407a9.114,9.114,0,0,0,8.991-8.706l2.426-59.7a9.012,9.012,0,0,0-8.726-9.664Z" transform="translate(296.607 88.158)" fill="#13448c"/>
    <path id="Path_148" data-name="Path 148" d="M385.841,84.84H293.092a8.563,8.563,0,0,0-6.4,2.9,8.6,8.6,0,0,1,2.406-.387h92.728a9.012,9.012,0,0,1,8.788,9.664l-2.426,59.7a9.176,9.176,0,0,1-2.467,5.79,9.175,9.175,0,0,0,6.463-8.3l2.426-59.7a9.012,9.012,0,0,0-8.767-9.664Z" transform="translate(297.834 88.158)" fill="#1d54b5"/>
    <path id="Path_149" data-name="Path 149" d="M328.121,110.121a10.521,10.521,0,1,0-10.521,10.5,10.521,10.521,0,0,0,10.521-10.5Z" transform="translate(319.017 103.471)" fill="#4286e8"/>
  </g>
</svg>
